# AST/ASF file generated using VICON BodyLanguage
# -----------------------------------------------
:version 1.10
:name VICON
:units
  mass 1.0
  length 0.45
  angle deg
:documentation
   .ast/.asf automatically generated from VICON data using
   VICON BodyBuilder and BodyLanguage model FoxedUp or BRILLIANT.MOD
:root
   order TX TY TZ RX RY RZ
   axis XYZ
   position 0 0 0  
   orientation 0 0 0 
:bonedata
  begin
     id 1 
     name lhipjoint
     direction 0.660183 -0.676772 0.325788 
     length 2.75133 
     axis 0 0 0  XYZ
  end
  begin
     id 2 
     name lfemur
     direction 0.34202 -0.939693 0  
     length 7.70317  
     axis 0 0 20  XYZ
    dof rx ry rz
    limits (-160.0 20.0)
           (-70.0 70.0)
           (-60.0 70.0)
  end
  begin
     id 3 
     name ltibia
     direction 0.342105 -0.939662 0   
     length 7.18701   
     axis 0 0 20   XYZ
    dof rx
    limits (-10.0 170.0)
  end
  begin
     id 4 
     name lfoot
     direction 0.14163 -0.389126 0.910232   
     length 2.41719   
     axis -90 7.62852e-016 20   XYZ
    dof rx rz
    limits (-45.0 90.0)
           (-70.0 20.0)
  end
  begin
     id 5 
     name ltoes
     direction 1.53533e-011 -4.21926e-011 1   
     length 1.18611   
     axis -90 7.62852e-016 20   XYZ
    dof rx
    limits (-90.0 20.0)
  end
  begin
     id 6 
     name rhipjoint
     direction -0.6658 -0.67229 0.323631   
     length 2.76968  
     axis 0 0 0  XYZ 
  end
  begin
     id 7 
     name rfemur
     direction -0.34202 -0.939693 0   
     length 7.92547   
     axis 0 0 -20   XYZ
    dof rx ry rz
    limits (-160.0 20.0)
           (-70.0 70.0)
           (-70.0 60.0)
  end
  begin
     id 8 
     name rtibia
     direction -0.342022 -0.939692 0   
     length 7.22641   
     axis 0 0 -20   XYZ
    dof rx
    limits (-10.0 170.0)
 end
 begin
     id 9 
     name rfoot
     direction -0.105675 -0.29034 0.951071   
     length 2.48149  
     axis -90 -7.62852e-016 -20   XYZ
    dof rx rz
    limits (-45.0 90.0)
           (-20.0 70.0)
  end
  begin
     id 10 
     name rtoes
     direction -1.5349e-011 -4.21859e-011 1   
     length 1.23343   
     axis -90 -7.62852e-016 -20   XYZ
    dof rx
    limits (-90.0 20.0)
  end
  begin
     id 11 
     name lowerback
     direction 0.0104173 0.993624 -0.112266   
     length 2.00527   
     axis 0 0 0   XYZ
    dof rx ry rz
    limits (-20.0 45.0)
           (-30.0 30.0)
           (-30.0 30.0)
  end
  begin
     id 12 
     name upperback
     direction 0.00733149 0.999856 -0.0152913   
     length 2.01385   
     axis 0 0 0   XYZ
    dof rx ry rz
    limits (-20.0 45.0)
           (-30.0 30.0)
           (-30.0 30.0)
  end
  begin
     id 13 
     name thorax
     direction 0.0026304 0.999318 0.036841   
     length 2.03734   
     axis 0 0 0   XYZ
    dof rx ry rz
    limits (-20.0 45.0)
           (-30.0 30.0)
           (-30.0 30.0)
  end
  begin
     id 14 
     name lowerneck
     direction 0.0293154 0.998757 0.0403082   
     length 1.65303   
     axis 0 0 0   XYZ
    dof rx ry rz
    limits (-20.0 45.0)
           (-30.0 30.0)
           (-30.0 30.0)
  end
  begin
     id 15 
     name upperneck
     direction -0.0376619 0.998184 -0.0470083   
     length 1.60926   
     axis 0 0 0   XYZ
    dof rx ry rz
    limits (-20.0 45.0)
           (-30.0 30.0)
           (-30.0 30.0)
  end
  begin
     id 16
     name head
     direction -0.0170133 0.999635 -0.0209778  
     length 1.73625  
     axis 0 0 0   XYZ
    dof rx ry rz
    limits (-20.0 45.0)
           (-30.0 30.0)
           (-30.0 30.0)
  end
  begin
     id 17 
     name lclavicle
     direction 0.919857 0.39181 -0.0186333  
     length 3.75313  
     axis 0 0 0   XYZ
    dof ry rz
    limits (-20.0 10.0)
           (0.0 20.0)
  end
  begin
     id 18 
     name lhumerus
     direction 1 -4.48988e-011 1.44029e-027   
     length 5.49313   
     axis 180 -30 -90   XYZ
    dof rx ry rz
    limits (-60.0 90.0)
           (-90.0 90.0)
           (-90.0 90.0)
  end
  begin
     id 19
     name lradius
     direction 1 -4.48924e-011 7.46281e-027   
     length 3.29037   
     axis 180 -30 -90   XYZ
    dof rx
    limits (-10.0 170.0)
  end
  begin
     id 20
     name lwrist
     direction 1 -4.48955e-011 2.19879e-026   
     length 1.64519   
     axis -1.34358e-014 90 90   XYZ
    dof ry
    limits (-180.0 0.0)
 end
  begin
     id 21 
     name lhand
     direction 1 -4.48978e-011 4.39747e-026   
     length 0.729656   
     axis -2.80598e-014 90 90   XYZ
    dof rx rz
    limits (-90.0 90.0)
           (-45.0 45.0)
  end
  begin
     id 22 
     name lfingers
     direction 1 -4.49071e-011 8.79411e-026   
     length 0.588268   
     axis -5.61193e-014 90 90   XYZ
    dof rx
    limits (0.0 90.0)
  end
  begin
     id 23
     name lthumb
     direction 0.707107 -6.34817e-011 0.707107   
     length 0.844638   
     axis -90 45 -9.86923e-015   XYZ
    dof rx rz
    limits (-45.0 45.0)
           (-45.0 45.0)
  end
  begin
     id 24 
     name rclavicle
     direction -0.919898 0.388279 0.0550233   
     length 3.7171  
     axis 0 0 0   XYZ 
    dof ry rz
    limits (-10.0 20.0)
           (-20.0 0.0)
  end
  begin
     id 25 
     name rhumerus
     direction -1 -4.48968e-011 9.98372e-028  
     length 5.23684   
     axis 180 30 90   XYZ
    dof rx ry rz
    limits (-90.0 60.0)
           (-90.0 90.0)
           (-90.0 90.0)
  end
  begin
     id 26 
     name rradius
     direction -1 -4.48956e-011 1.01023e-026   
     length 3.38251   
     axis 180 30 90   XYZ
    dof rx
    limits (-10.0 170.0)
  end
  begin
     id 27 
     name rwrist
     direction -1 -4.4892e-011 2.19886e-026   
     length 1.69126   
     axis -1.34358e-014 -90 -90   XYZ
    dof ry
    limits (-180.0 0.0)
  end
  begin
     id 28
     name rhand
     direction -1 -4.49024e-011 4.39727e-026   
     length 0.691454   
     axis -2.80598e-014 -90 -90   XYZ
    dof rx rz
    limits (-90.0 90.0)
           (-45.0 45.0)
  end
  begin
     id 29
     name rfingers
     direction -1 -4.49097e-011 8.79388e-026   
     length 0.557468   
     axis -5.61193e-014 -90 -90   XYZ
    dof rx
    limits (0.0 90.0)
  end
  begin
     id 30
     name rthumb
     direction -0.707107 -6.34938e-011 0.707107   
     length 0.800416   
     axis -90 -45 9.86923e-015   XYZ
    dof rx rz
    limits (-45.0 45.0)
           (-45.0 45.0)
  end
:hierarchy
  begin
    root lhipjoint rhipjoint lowerback
    lhipjoint lfemur
    lfemur ltibia
    ltibia lfoot
    lfoot ltoes
    rhipjoint rfemur
    rfemur rtibia
    rtibia rfoot
    rfoot rtoes
    lowerback upperback
    upperback thorax
    thorax lowerneck lclavicle rclavicle
    lowerneck upperneck
    upperneck head
    lclavicle lhumerus
    lhumerus lradius
    lradius lwrist
    lwrist lhand lthumb
    lhand lfingers
    rclavicle rhumerus
    rhumerus rradius
    rradius rwrist
    rwrist rhand rthumb
    rhand rfingers
  end

#!OML:ASF H:\BabyWalks\Project 1\Capture day 1\Session 1\baby.ASF
:FULLY-SPECIFIED
:DEGREES
243
root -18.82 17.1265 -3.20096 -9.85968 81.7086 -16.373
lowerback 19.5728 2.79023 -4.99742
upperback 6.20618 2.91543 -3.63325
thorax -4.25354 1.61945 -1.72352
lowerneck -2.16103 -0.978927 2.8743
upperneck -5.91603 -1.11235 2.71399
head -1.46424 -0.614768 0.367529
rclavicle 2.38542e-014 2.54444e-014
rhumerus -48.5621 13.1495 -88.6007
rradius 50.5837
rwrist -5.54567
rhand -19.6437 -17.6272
rfingers 7.12502
rthumb 6.68376 -47.5017
lclavicle 2.38542e-014 2.54444e-014
lhumerus -51.2386 -4.07907 67.1362
lradius 52.2001
lwrist -7.14995
lhand 0.877226 5.92216
lfingers 7.12502
lthumb 26.4303 34.0995
rfemur -6.92719 9.23529 19.0761
rtibia 57.6602
rfoot -12.122 12.2702
rtoes -18.9969
lfemur -27.6846 -2.7432 -14.6405
ltibia 46.4079
lfoot -27.1998 -10.5739
ltoes -0.149124
244
root -18.6452 17.1269 -3.19566 -9.74142 81.7181 -16.2913
lowerback 19.5624 2.56257 -5.05477
upperback 6.15371 2.60003 -3.68437
thorax -4.30183 1.46479 -1.67412
lowerneck -2.23586 -0.887838 2.80514
upperneck -5.71972 -0.999006 2.7803
head -1.38845 -0.554414 0.397155
rclavicle -1.74931e-014 3.65764e-014
rhumerus -48.5464 13.1209 -88.4586
rradius 50.283
rwrist -4.96306
rhand -19.7328 -17.7292
rfingers 7.12502
rthumb 6.59776 -47.6064
lclavicle -1.74931e-014 3.65764e-014
lhumerus -49.843 -4.05289 67.4727
lradius 52.613
lwrist -7.51021
lhand -0.525095 5.66232
lfingers 7.12502
lthumb 25.0873 34.0344
rfemur -8.83462 8.47738 18.7469
rtibia 59.3479
rfoot -12.9338 12.0065
rtoes -19.5686
lfemur -27.0234 -2.79122 -14.7616
ltibia 46.3957
lfoot -27.7062 -10.5127
ltoes -0.0711461
245
root -18.4716 17.1323 -3.18992 -9.97652 81.7577 -16.559
lowerback 19.5762 2.32183 -5.06754
upperback 6.09427 2.27449 -3.68665
thorax -4.37069 1.30454 -1.59637
lowerneck -2.28803 -0.795129 2.75002
upperneck -5.58132 -0.881742 2.81188
head -1.33545 -0.492915 0.414298
rclavicle -2.06736e-014 3.97569e-014
rhumerus -48.5936 13.1399 -88.2841
rradius 50.0316
rwrist -4.44181
rhand -19.684 -17.7004
rfingers 7.12502
rthumb 6.64485 -47.5761
lclavicle -2.06736e-014 3.97569e-014
lhumerus -48.5232 -4.10913 67.9035
lradius 53.2096
lwrist -7.52232
lhand -2.12786 5.50121
lfingers 7.12502
lthumb 23.5507 34.0793
rfemur -10.7031 7.71741 18.5148
rtibia 60.6702
rfoot -13.709 11.848
rtoes -20.0917
lfemur -26.3287 -2.86025 -14.8312
ltibia 46.3061
lfoot -28.1554 -10.4828
ltoes -0.0164277
246
root -18.2987 17.1428 -3.18298 -10.1825 81.819 -16.7768
lowerback 19.6275 2.08567 -5.08902
upperback 6.02532 1.95034 -3.66214
thorax -4.47014 1.14504 -1.48689
lowerneck -2.31019 -0.700855 2.72004
upperneck -5.49428 -0.760762 2.80792
head -1.3042 -0.430625 0.416857
rclavicle -2.46493e-014 2.22639e-014
rhumerus -48.7095 13.1915 -88.087
rradius 49.8272
rwrist -4.01927
rhand -19.4968 -17.5675
rfingers 7.12502
rthumb 6.82562 -47.4375
lclavicle -2.46493e-014 2.22639e-014
lhumerus -47.304 -4.27481 68.4077
lradius 54.0086
lwrist -7.19338
lhand -3.84363 5.45132
lfingers 7.12502
lthumb 21.9041 34.2314
rfemur -12.5142 6.98298 18.3244
rtibia 61.6333
rfoot -14.4536 11.7969
rtoes -20.524
lfemur -25.5711 -2.94026 -14.9098
ltibia 46.1168
lfoot -28.539 -10.4794
ltoes 0.0053272
247
root -18.1266 17.158 -3.17433 -10.3233 81.8902 -16.9035
lowerback 19.718 1.85887 -5.13265
upperback 5.95134 1.63188 -3.61068
thorax -4.59587 0.988613 -1.33823
lowerneck -2.31934 -0.598657 2.70895
upperneck -5.44116 -0.628958 2.76682
head -1.28607 -0.363458 0.405116
rclavicle 5.56597e-015 7.95139e-015
rhumerus -48.8714 13.2872 -87.8687
rradius 49.6507
rwrist -3.71488
rhand -19.1706 -17.3558
rfingers 7.12502
rthumb 7.1405 -47.2153
lclavicle 5.56597e-015 7.95139e-015
lhumerus -46.1971 -4.52463 68.9634
lradius 55.0171
lwrist -6.5716
lhand -5.57624 5.53582
lfingers 7.12502
lthumb 20.2397 34.5013
rfemur -14.2564 6.29584 18.1761
rtibia 62.2417
rfoot -15.1911 11.8261
rtoes -20.9249
lfemur -24.7391 -3.02657 -14.9974
ltibia 45.8176
lfoot -28.8518 -10.5009
ltoes 0.00137414
248
root -17.9549 17.1776 -3.16379 -10.3917 81.9522 -16.9256
lowerback 19.8497 1.6508 -5.1855
upperback 5.87278 1.33331 -3.54472
thorax -4.74749 0.842584 -1.17388
lowerneck -2.3179 -0.492261 2.73064
upperneck -5.40736 -0.491958 2.69305
head -1.27594 -0.294291 0.378074
rclavicle 6.36111e-015 9.54166e-015
rhumerus -49.0706 13.3933 -87.6393
rradius 49.4926
rwrist -3.52811
rhand -18.6935 -17.1081
rfingers 7.12502
rthumb 7.60097 -46.9516
lclavicle 6.36111e-015 9.54166e-015
lhumerus -45.2054 -4.86616 69.5398
lradius 56.233
lwrist -5.72044
lhand -7.23602 5.74961
lfingers 7.12502
lthumb 18.6438 34.8762
rfemur -15.9129 5.68002 18.0727
rtibia 62.4992
rfoot -15.9183 11.9011
rtoes -21.2634
lfemur -23.821 -3.10654 -15.0919
ltibia 45.4064
lfoot -29.0932 -10.5461
ltoes -0.0169793
249
root -17.7824 17.2012 -3.15165 -10.422 81.9817 -16.867
lowerback 20.0195 1.46307 -5.2472
upperback 5.79929 1.05824 -3.46098
thorax -4.91292 0.708745 -0.990588
lowerneck -2.32872 -0.374434 2.77069
upperneck -5.3809 -0.341105 2.58977
head -1.26599 -0.218143 0.338918
rclavicle -9.54166e-015 1.43125e-014
rhumerus -49.2817 13.5311 -87.3999
rradius 49.3323
rwrist -3.42751
rhand -18.089 -16.8546
rfingers 7.12502
rthumb 8.18449 -46.6761
lclavicle -9.54166e-015 1.43125e-014
lhumerus -44.3395 -5.25699 70.1136
lradius 57.6574
lwrist -4.71756
lhand -8.73504 6.06596
lfingers 7.12502
lthumb 17.2015 35.3246
rfemur -17.4591 5.15891 18.0198
rtibia 62.4099
rfoot -16.6551 11.9683
rtoes -21.6385
lfemur -22.7973 -3.17789 -15.1842
ltibia 44.8902
lfoot -29.2692 -10.6022
ltoes -0.056761
250
root -17.6095 17.2285 -3.13772 -10.4587 81.9942 -16.7867
lowerback 20.2159 1.29041 -5.30448
upperback 5.72727 0.802696 -3.36367
thorax -5.08968 0.585086 -0.798893
lowerneck -2.33525 -0.249908 2.83494
upperneck -5.36879 -0.181878 2.45903
head -1.26112 -0.138163 0.287422
rclavicle -3.81667e-014 5.40694e-014
rhumerus -49.496 13.6723 -87.1513
rradius 49.1599
rwrist -3.38863
rhand -17.3525 -16.6347
rfingers 7.12502
rthumb 8.89515 -46.4272
lclavicle -3.81667e-014 5.40694e-014
lhumerus -43.5977 -5.68963 70.6634
lradius 59.2722
lwrist -3.63332
lhand -10.016 6.43619
lfingers 7.12502
lthumb 15.9683 35.798
rfemur -18.8943 4.72477 18.0205
rtibia 61.9811
rfoot -17.3815 11.9792
rtoes -21.9615
lfemur -21.694 -3.25294 -15.2681
ltibia 44.2762
lfoot -29.3755 -10.6715
ltoes -0.129388
251
root -17.4346 17.259 -3.12259 -10.5171 81.9746 -16.6978
lowerback 20.4271 1.13181 -5.353
upperback 5.66475 0.568042 -3.25251
thorax -5.26295 0.472068 -0.600691
lowerneck -2.34618 -0.115245 2.91712
upperneck -5.37632 -0.00978293 2.29901
head -1.26138 -0.0519232 0.224011
rclavicle 2.54444e-014 -4.13472e-014
rhumerus -49.7003 13.8255 -86.8898
rradius 48.9828
rwrist -3.38975
rhand -16.4849 -16.489
rfingers 7.12502
rthumb 9.73237 -46.2441
lclavicle 2.54444e-014 -4.13472e-014
lhumerus -42.97 -6.12833 71.1739
lradius 61.0491
lwrist -2.5307
lhand -11.0436 6.7765
lfingers 7.12502
lthumb 14.9785 36.2148
rfemur -20.2028 4.38389 18.0704
rtibia 61.2237
rfoot -18.0844 11.8911
rtoes -22.2635
lfemur -20.4993 -3.33098 -15.3413
ltibia 43.5689
lfoot -29.4103 -10.7466
ltoes -0.221302
252
root -17.2571 17.2927 -3.10662 -10.5938 81.9248 -16.6106
lowerback 20.6312 0.987078 -5.38361
upperback 5.60942 0.356999 -3.13136
thorax -5.42414 0.370635 -0.405712
lowerneck -2.3375 0.0245283 3.02042
upperneck -5.42141 0.169988 2.11156
head -1.27638 0.0374521 0.14871
rclavicle -1.90833e-014 7.95139e-015
rhumerus -49.8944 13.9661 -86.6118
rradius 48.8004
rwrist -3.40284
rhand -15.5016 -16.4348
rfingers 7.12502
rthumb 10.6809 -46.1433
lclavicle -1.90833e-014 7.95139e-015
lhumerus -42.4481 -6.57518 71.6396
lradius 62.9625
lwrist -1.4509
lhand -11.7936 7.11163
lfingers 7.12502
lthumb 14.2559 36.6023
rfemur -21.3912 4.13591 18.1614
rtibia 60.1514
rfoot -18.7217 11.6932
rtoes -22.4637
lfemur -19.2273 -3.41916 -15.4042
ltibia 42.7712
lfoot -29.3745 -10.8203
ltoes -0.367723
